<svg width="444" height="116" viewBox="0 0 444 116" fill="none" xmlns="http://www.w3.org/2000/svg">
<rect width="444" height="116" fill="white"/>
<path d="M85.336 35.104C82.1787 35.104 80.5573 35.9787 80.472 37.728L79.832 50.592C79.6187 54.9867 77.464 57.184 73.368 57.184V57.76C77.464 57.76 79.6187 59.9573 79.832 64.352L80.472 77.28C80.5573 79.072 82.1787 79.968 85.336 79.968V86.24H79.512C77.08 86.24 74.968 85.6213 73.176 84.384C71.384 83.1467 70.488 81.376 70.488 79.072V63.52C70.488 62.3253 69.9547 61.4507 68.888 60.896C67.8213 60.2987 66.4987 60 64.92 60V54.944C66.3707 54.944 67.6507 54.6453 68.76 54.048C69.912 53.408 70.488 52.4907 70.488 51.296V36C70.488 33.696 71.384 31.9253 73.176 30.688C74.968 29.4507 77.08 28.832 79.512 28.832H85.336V35.104ZM390.509 28.832C392.941 28.832 395.053 29.4507 396.845 30.688C398.637 31.9253 399.533 33.696 399.533 36V51.296C399.533 52.4907 400.088 53.408 401.197 54.048C402.349 54.6453 403.65 54.944 405.101 54.944V60C403.522 60 402.2 60.2987 401.133 60.896C400.066 61.4507 399.533 62.3253 399.533 63.52V79.072C399.533 81.376 398.637 83.1467 396.845 84.384C395.053 85.6213 392.941 86.24 390.509 86.24H384.685V79.968C387.842 79.968 389.464 79.072 389.549 77.28L390.189 64.352C390.402 59.9573 392.557 57.76 396.653 57.76V57.184C392.557 57.184 390.402 54.9867 390.189 50.592L389.549 37.728C389.464 35.9787 387.842 35.104 384.685 35.104V28.832H390.509Z" fill="#FFB200"/>
<path d="M130.5 41.44C136.046 41.44 140.526 42.6347 143.94 45.024C147.396 47.3707 149.124 50.976 149.124 55.84H136.772C136.772 52 134.681 50.08 130.5 50.08C126.318 50.08 124.228 52.4907 124.228 57.312V60.96C124.228 65.7387 126.404 68.128 130.756 68.128C135.108 68.128 137.284 66.1653 137.284 62.24H149.124C149.124 67.1467 147.396 70.7947 143.94 73.184C140.526 75.5733 136.046 76.768 130.5 76.768C124.569 76.768 119.918 75.2747 116.548 72.288C113.177 69.3013 111.492 64.9067 111.492 59.104C111.492 53.3013 113.177 48.9067 116.548 45.92C119.918 42.9333 124.569 41.44 130.5 41.44ZM180.227 76L179.395 70.88C178.072 72.7147 176.323 74.1653 174.147 75.232C172.014 76.256 169.752 76.768 167.363 76.768C163.438 76.768 160.494 75.68 158.531 73.504C156.568 71.328 155.587 68.192 155.587 64.096V42.208H168.323V62.56C168.323 64.0107 168.686 65.184 169.411 66.08C170.179 66.9333 171.246 67.36 172.611 67.36C174.19 67.36 175.47 66.848 176.451 65.824C177.432 64.8 177.923 63.5413 177.923 62.048V42.208H190.659V76H180.227ZM218.947 41.376C219.928 41.376 220.803 41.504 221.571 41.76C222.339 41.9733 222.723 42.1013 222.723 42.144V52.832H218.627C215.981 52.832 214.061 53.5147 212.867 54.88C211.715 56.2453 211.139 58.272 211.139 60.96V76H198.403V42.208H208.835L209.667 47.328C210.435 45.3653 211.651 43.8933 213.315 42.912C214.979 41.888 216.856 41.376 218.947 41.376ZM250.072 41.376C251.053 41.376 251.928 41.504 252.696 41.76C253.464 41.9733 253.848 42.1013 253.848 42.144V52.832H249.752C247.106 52.832 245.186 53.5147 243.992 54.88C242.84 56.2453 242.264 58.272 242.264 60.96V76H229.528V42.208H239.96L240.792 47.328C241.56 45.3653 242.776 43.8933 244.44 42.912C246.104 41.888 247.981 41.376 250.072 41.376ZM258.413 38.24V29.6H271.149V38.24H258.413ZM258.413 76V42.208H271.149V76H258.413ZM302.574 41.44C306.499 41.44 309.443 42.528 311.406 44.704C313.368 46.88 314.35 50.016 314.35 54.112V76H301.614V55.648C301.614 54.1973 301.23 53.0453 300.462 52.192C299.736 51.296 298.691 50.848 297.326 50.848C295.747 50.848 294.467 51.36 293.486 52.384C292.504 53.408 292.014 54.6667 292.014 56.16V76H279.278V42.208H289.71L290.542 47.328C291.864 45.536 293.592 44.1067 295.726 43.04C297.902 41.9733 300.184 41.44 302.574 41.44ZM359.981 35.872C359.981 38.4747 359.32 40.48 357.997 41.888C356.717 43.296 354.776 44.3413 352.173 45.024C353.41 45.9627 354.37 47.072 355.053 48.352C355.778 49.5893 356.141 50.912 356.141 52.32C356.141 55.904 354.776 58.6133 352.045 60.448C349.357 62.2827 345.986 63.2 341.933 63.2H337.069C334.381 63.2 333.037 63.8187 333.037 65.056C333.037 65.6533 333.336 66.144 333.933 66.528C334.53 66.8693 335.576 67.04 337.069 67.04H348.589C352.344 67.04 355.181 68.0213 357.101 69.984C359.021 71.9467 359.981 74.5707 359.981 77.856C359.981 80.288 359.341 82.3787 358.061 84.128C356.781 85.8773 355.053 87.2 352.877 88.096C350.701 88.992 348.333 89.44 345.773 89.44H326.957C325.421 89.44 323.992 89.0773 322.669 88.352C321.389 87.6267 320.365 86.624 319.597 85.344C318.829 84.1067 318.445 82.72 318.445 81.184C318.445 79.52 318.957 78.0053 319.981 76.64C321.005 75.3173 322.285 74.3147 323.821 73.632C322.797 72.9067 321.986 72.032 321.389 71.008C320.792 69.984 320.493 68.8747 320.493 67.68C320.493 66.016 321.112 64.5227 322.349 63.2C323.586 61.8347 325.122 60.9173 326.957 60.448C325.293 59.3813 323.97 58.1653 322.989 56.8C322.008 55.392 321.517 53.92 321.517 52.384C321.517 48.4587 323.096 45.664 326.253 44C329.453 42.2933 333.677 41.44 338.925 41.44C341.229 41.44 343.085 41.568 344.493 41.824C346.584 40.5013 347.928 39.3067 348.525 38.24C349.165 37.1307 349.485 36.3413 349.485 35.872H359.981ZM338.797 48.096C337.389 48.096 336.237 48.4587 335.341 49.184C334.445 49.9093 333.997 50.9547 333.997 52.32C333.997 53.728 334.402 54.7947 335.213 55.52C336.066 56.2027 337.261 56.544 338.797 56.544C340.333 56.544 341.528 56.2027 342.381 55.52C343.277 54.7947 343.725 53.728 343.725 52.32C343.725 50.912 343.277 49.8667 342.381 49.184C341.528 48.4587 340.333 48.096 338.797 48.096ZM333.869 76C332.888 76 332.077 76.256 331.437 76.768C330.84 77.3227 330.541 78.0907 330.541 79.072C330.541 80.0533 330.861 80.8427 331.501 81.44C332.141 82.0373 332.93 82.336 333.869 82.336H343.853C344.792 82.336 345.581 82.0373 346.221 81.44C346.904 80.8853 347.245 80.1173 347.245 79.136C347.245 78.1547 346.925 77.3867 346.285 76.832C345.645 76.2773 344.834 76 343.853 76H333.869Z" fill="white"/>
</svg>
