<svg width="444" height="116" viewBox="0 0 444 116" fill="none" xmlns="http://www.w3.org/2000/svg">
<rect width="444" height="116" fill="white"/>
<g clip-path="url(#clip0_201_3)">
<path d="M146.949 80.4741C146.949 86.3278 146.597 86.6578 139.431 86.6578H131.924V74.2903H139.394C146.597 74.2903 146.949 74.6325 146.949 80.4741ZM145.225 75.6713H133.624V85.2769H145.225V75.6713Z" fill="#FFB600"/>
<path d="M150.52 75.6713V79.7897H162.473V81.1707H150.557V85.2769H162.849V86.6578H148.82V74.2903H162.813V75.6713H150.52Z" fill="#FFB600"/>
<path d="M178.021 74.2903L171.522 86.6578H169.822L163.335 74.2903H165.036L170.684 85.0202L176.32 74.2903H178.021Z" fill="#FFB600"/>
<path d="M180.754 75.6713V79.7897H192.67V81.1707H180.754V85.2769H193.046V86.6578H179.053V74.2903H193.046V75.6713H180.754Z" fill="#FFB600"/>
<path d="M207.27 85.2769V86.6578H194.65V74.2903H196.35V85.2891L207.27 85.2769Z" fill="#FFB600"/>
<path d="M223.207 80.4741C223.207 86.6578 222.854 87 215.688 87C208.521 87 208.181 86.6578 208.181 80.4741C208.181 74.2903 208.509 73.9604 215.688 73.9604C222.867 73.9604 223.207 74.2903 223.207 80.4741ZM221.482 75.3169H209.845V85.6313H221.445L221.482 75.3169Z" fill="#FFB600"/>
<path d="M239.167 78.4332C239.167 82.2461 238.876 82.5394 233.957 82.5394H226.851V86.6578H225.15V74.2903H233.993C238.876 74.2903 239.167 74.5959 239.167 78.4332ZM237.467 75.6713H226.851V81.1707H237.503L237.467 75.6713Z" fill="#FFB600"/>
<path d="M242.483 75.6713V79.7897H254.399V81.1707H242.483V85.2769H254.788V86.6578H240.783V74.2903H254.788V75.6713H242.483Z" fill="#FFB600"/>
<path d="M270.725 85.4602V86.6823H269V82.5394H258.068V86.6578H256.367V74.2903H265.477C270.397 74.2903 270.712 74.6325 270.712 78.4088C270.712 80.3885 270.53 81.464 269.17 81.8672C270.579 82.2217 270.725 83.2726 270.725 85.4602ZM269 75.6835H258.068V81.1829H269V75.6835Z" fill="#FFB600"/>
<path d="M287.22 83.236C287.22 85.9735 286.175 87 279.701 87C273.227 87 272.194 85.9735 272.194 83.236H273.895V85.6802H285.495V80.8285H279.701C277.805 80.9836 275.898 80.738 274.101 80.1075C273.576 79.8879 273.135 79.5048 272.842 79.0144C272.549 78.5239 272.42 77.9519 272.474 77.3822C272.474 74.9381 273.555 73.9604 279.701 73.9604C285.847 73.9604 286.989 74.9869 286.989 77.3822H285.289V75.3169H274.223V79.4475H279.75C282.738 79.4475 283.928 79.5453 285.337 80.1075C285.957 80.3373 286.481 80.772 286.823 81.3403C287.165 81.9087 287.305 82.5771 287.22 83.236V83.236Z" fill="#FFB600"/>
<path d="M40.8961 39.8765L31.1787 46.9157L40.8961 53.906V64.0126L24 51.7185V42.064L40.8961 29.831V39.8765Z" fill="#FFB600"/>
<path d="M92.5805 52.5984C92.0947 64.1593 88.9365 64.8192 69.2588 64.8192C46.678 64.8192 45.767 63.9027 45.767 46.9035C45.767 29.9043 46.7266 29 69.2588 29C88.9122 29 92.0947 29.6844 92.5805 41.2819H82.1465V37.5546H56.0917V56.338H82.1465V52.5984H92.5805Z" fill="white"/>
<path d="M119.546 64.8314C96.6254 64.8314 97.002 63.9149 97.002 46.9157V29.9166H107.339V56.3869H131.705V29.9166H142.03V46.9157C142.03 63.9149 142.419 64.8314 119.546 64.8314Z" fill="white"/>
<path d="M193.277 61.0919V63.9149H183.05V55.8003H157.954V63.9149H147.63V29.9166H178.507C191.734 29.9166 193.277 31.1386 193.277 42.834C193.277 47.8934 192.062 49.5921 189.269 50.9486C192.075 52.4029 193.277 53.0384 193.277 61.0919ZM183.001 38.4223H157.954V47.3312H183.001V38.4223Z" fill="white"/>
<path d="M244.281 61.0919V63.9149H234.054V55.8003H208.959V63.9149H198.634V29.9166H229.511C242.739 29.9166 244.281 31.1386 244.281 42.834C244.281 47.8934 243.067 49.5921 240.273 50.9486C243.079 52.4029 244.281 53.0384 244.281 61.0919ZM234.005 38.4223H208.959V47.3312H234.005V38.4223Z" fill="white"/>
<path d="M259.963 29.9166V63.9149H249.638V29.9166H259.963Z" fill="white"/>
<path d="M311.404 29.9166V63.9149H296.828L276.081 40.5609V63.9149H265.72V29.9166H279.288L301.152 54.4437V29.9166H311.404Z" fill="white"/>
<path d="M363.562 46.9157C363.562 63.9149 362.7 64.8314 340.155 64.8314C317.611 64.8314 316.651 63.9149 316.651 46.9157C316.651 29.9166 317.623 29 340.155 29C358.934 29 362.7 29.6355 363.416 39.7788H353.177V37.5546H326.988V56.338H353.177V51.9629H334.422V44.4349H363.574L363.562 46.9157Z" fill="white"/>
<path d="M397.197 29.9166L376.547 63.9149H365.737L386.386 29.9166H397.197Z" fill="#FFB600"/>
<path d="M419 51.7185L402.116 64.0126V53.906L411.833 46.9157L402.116 39.8765V29.831L419 42.0518V51.7185Z" fill="#FFB600"/>
</g>
<defs>
<clipPath id="clip0_201_3">
<rect width="395" height="58" fill="white" transform="translate(24 29)"/>
</clipPath>
</defs>
</svg>
